<?xml version="1.0" standalone="no"?><!DOCTYPE svg PUBLIC "-//W3C//DTD SVG 1.1//EN" "http://www.w3.org/Graphics/SVG/1.1/DTD/svg11.dtd"><svg t="1739171593287" class="icon" viewBox="0 0 1024 1024" version="1.1" xmlns="http://www.w3.org/2000/svg" p-id="14427" xmlns:xlink="http://www.w3.org/1999/xlink" width="32" height="32"><path d="M857.6 972.8H166.4C101.888 972.8 51.2 922.112 51.2 857.6V166.4C51.2 101.888 101.888 51.2 166.4 51.2h691.2C922.112 51.2 972.8 101.888 972.8 166.4v691.2c0 64.512-50.688 115.2-115.2 115.2zM175.9744 153.6C162.56 153.6 153.6 162.56 153.6 176.0256v671.9488c0 13.4656 8.96 22.4256 22.4256 22.4256h671.9488c13.4656 0 22.4256-8.96 22.4256-22.4256V176.0256c0-13.4144-8.96-22.3744-22.4256-22.3744H176.0256z" p-id="14428" fill="#515151"></path><path d="M682.6496 448c-25.6 0-42.6496-17.0496-42.6496-42.6496V384h-256v21.3504c0 25.6-17.0496 42.6496-42.6496 42.6496-25.6 0-42.7008-17.0496-42.7008-42.6496v-64c0-25.6 17.1008-42.7008 42.7008-42.7008h341.2992c25.6 0 42.7008 17.1008 42.7008 42.7008v64c0 25.6-17.1008 42.6496-42.7008 42.6496zM554.6496 768H469.3504c-25.6 0-42.7008-17.0496-42.7008-42.6496 0-25.6 17.1008-42.7008 42.7008-42.7008h85.2992c25.6 0 42.7008 17.1008 42.7008 42.7008 0 25.6-17.1008 42.6496-42.7008 42.6496z" p-id="14429" fill="#515151"></path><path d="M512 768c-25.6 0-42.6496-17.0496-42.6496-42.6496V384c0-25.6 17.0496-42.6496 42.6496-42.6496 25.6 0 42.6496 17.0496 42.6496 42.6496v341.3504c0 25.6-17.0496 42.6496-42.6496 42.6496z" p-id="14430" fill="#515151"></path></svg>