<svg t="1763625050838" class="icon" viewBox="0 0 1024 1024" version="1.1" xmlns="http://www.w3.org/2000/svg" p-id="5869" width="32" height="32"><path d="M903.566222 256.682667L657.635556 10.752A36.494222 36.494222 0 0 0 631.808 0H146.318222c-20.224 0-36.579556 16.355556-36.579555 36.579556v950.840888c0 20.224 16.355556 36.579556 36.579555 36.579556h731.420445c20.252444 0 36.579556-16.355556 36.579555-36.579556V282.624c0-9.699556-3.896889-19.057778-10.752-25.941333z m-73.585778 42.752h-215.096888V84.337778l215.096888 215.096889z m2.048 642.275555h-640V82.289778h345.144889v246.840889a48.014222 48.014222 0 0 0 48.014223 48.014222h246.840888v564.565333z" fill="#000000" fill-opacity=".65" p-id="5870"></path></svg>