<svg t="1763625362834" class="icon" viewBox="0 0 1024 1024" version="1.1" xmlns="http://www.w3.org/2000/svg" p-id="6519" width="32" height="32"><path d="M886.68917 146.134178h-63.969241V63.91238a27.350405 27.350405 0 0 0-27.407266-27.435697H119.058273a27.350405 27.350405 0 0 0-27.407266 27.435697v310.691498c0 15.182033 12.225233 27.407266 27.407266 27.407266h676.25439c15.182033 0 27.407266-12.225233 27.407266-27.407266V219.258129h36.561975v228.4697H458.322699c-25.246527 0-45.688254 20.441726-45.688254 45.688253v155.345749h-50.265608a9.154709 9.154709 0 0 0-9.15471 9.126279v260.45432c0 0.682339 0.142154 1.4784 0.255877 2.160739a95.982293 95.982293 0 1 0 191.424401 0 12.736987 12.736987 0 0 0 0.255877-2.160739v-260.425889a9.154709 9.154709 0 0 0-9.154709-9.15471h-50.265608v-127.938482H886.717601c25.246527 0 45.688254-20.470157 45.688254-45.688254V191.850863c0-25.246527-20.470157-45.716685-45.688254-45.716685z m-137.064761 182.781446H164.746527V109.600634h584.877882v219.31499z m-277.598077 598.553085a22.915204 22.915204 0 0 1-22.858342 22.858342 22.915204 22.915204 0 0 1-22.829912-22.829911V721.857351h45.688254v205.639789z" fill="#000000" fill-opacity=".65" p-id="6520"></path></svg>